<svg width="192" height="22" viewBox="0 0 192 22" fill="none" xmlns="http://www.w3.org/2000/svg">
<g id="MS-Advertising_logo_horiz_192x21">
<path id="Vector" d="M41.3958 4.70036V17.3016H39.1835V7.42479H39.1481L35.1927 17.3016H33.7267L29.6739 7.42479H29.6474V17.3016H27.6033V4.70036H30.7741L34.4346 14.0404H34.4877L38.3547 4.70036H41.3928H41.3958ZM43.2452 5.65712C43.2452 5.30417 43.375 5.01247 43.6316 4.77328C43.8882 4.53701 44.195 4.41741 44.5519 4.41741C44.9324 4.41741 45.245 4.53992 45.4928 4.78203C45.7406 5.02414 45.8645 5.31583 45.8645 5.65712C45.8645 5.9984 45.7376 6.29302 45.4839 6.52637C45.2303 6.75973 44.9176 6.87932 44.5519 6.87932C44.1861 6.87932 43.8764 6.75973 43.6227 6.52345C43.372 6.28718 43.2452 5.9984 43.2452 5.65712ZM45.6167 17.3016H43.4664V8.26779H45.6167V17.3016ZM52.1383 15.7556C52.4569 15.7556 52.8108 15.6827 53.1972 15.5368C53.5836 15.391 53.9376 15.1985 54.2621 14.9564V16.9341C53.9199 17.1266 53.5305 17.2724 53.094 17.3745C52.6575 17.4737 52.1796 17.5233 51.6575 17.5233C50.3125 17.5233 49.2211 17.1032 48.3775 16.2632C47.5369 15.4231 47.1151 14.3496 47.1151 13.0428C47.1151 11.5902 47.5457 10.3943 48.4041 9.45208C49.2624 8.51282 50.4806 8.04027 52.0557 8.04027C52.4598 8.04027 52.8669 8.09277 53.2769 8.19487C53.6898 8.29696 54.0172 8.41656 54.2591 8.55074V10.5897C53.9287 10.3505 53.5895 10.1638 53.2415 10.0326C52.8934 9.90129 52.5395 9.8342 52.1796 9.8342C51.3331 9.8342 50.6488 10.1084 50.1267 10.6509C49.6046 11.1964 49.345 11.9315 49.345 12.8562C49.345 13.7808 49.5957 14.4809 50.0972 14.9914C50.5986 15.5018 51.277 15.7556 52.1354 15.7556M60.3825 8.11903C60.5536 8.11903 60.71 8.13069 60.8456 8.15403C60.9813 8.17737 61.0993 8.20654 61.1937 8.24154V10.3943C61.0816 10.3126 60.9164 10.2338 60.7011 10.1609C60.4858 10.088 60.2233 10.0501 59.9136 10.0501C59.3856 10.0501 58.9402 10.2688 58.5774 10.7093C58.2116 11.1497 58.0317 11.8265 58.0317 12.7395V17.3016H55.8814V8.26779H58.0317V9.69127H58.0671C58.2618 9.1983 58.5597 8.81326 58.9549 8.53615C59.3531 8.25904 59.828 8.11903 60.3855 8.11903M61.3117 12.9174C61.3117 11.4239 61.7364 10.2397 62.5918 9.36749C63.4443 8.49532 64.63 8.05777 66.1461 8.05777C67.5738 8.05777 68.6887 8.47781 69.491 9.3179C70.2933 10.158 70.6945 11.2927 70.6945 12.7249C70.6945 14.1571 70.2668 15.356 69.4143 16.2223C68.5619 17.0887 67.3997 17.5233 65.9308 17.5233C64.4619 17.5233 63.3912 17.112 62.5594 16.2894C61.7276 15.4668 61.3117 14.3438 61.3117 12.9203M63.5504 12.8503C63.5504 13.7954 63.7658 14.5159 64.1994 15.0118C64.63 15.5106 65.2494 15.7585 66.0576 15.7585C66.8658 15.7585 67.4351 15.5106 67.8422 15.0118C68.2522 14.513 68.4557 13.775 68.4557 12.7978C68.4557 11.8206 68.2433 11.0914 67.8215 10.5955C67.3997 10.0996 66.8039 9.8517 66.0399 9.8517C65.276 9.8517 64.6418 10.1113 64.2053 10.6305C63.7687 11.1497 63.5534 11.8877 63.5534 12.8503M73.8948 10.6451C73.8948 10.9514 73.9921 11.1877 74.1868 11.3627C74.3815 11.5348 74.8151 11.7536 75.4847 12.0161C76.343 12.3574 76.9477 12.7395 77.2928 13.1624C77.6408 13.5883 77.8119 14.1017 77.8119 14.7055C77.8119 15.5543 77.4816 16.2369 76.8209 16.7532C76.1601 17.2695 75.2664 17.5262 74.1426 17.5262C73.7621 17.5262 73.3432 17.4824 72.886 17.3891C72.4259 17.2987 72.0365 17.182 71.718 17.042V14.9505C72.1073 15.2189 72.5291 15.4347 72.9804 15.5923C73.4317 15.7498 73.8388 15.8285 74.2075 15.8285C74.6942 15.8285 75.0511 15.7614 75.2811 15.6273C75.5112 15.4931 75.6262 15.2656 75.6262 14.9505C75.6262 14.6588 75.5053 14.4109 75.2664 14.2067C75.0275 14.0054 74.5732 13.7721 73.9037 13.5066C73.1102 13.177 72.5468 12.8095 72.2165 12.3982C71.8861 11.9869 71.718 11.4677 71.718 10.8347C71.718 10.0209 72.0454 9.34998 72.7002 8.82785C73.355 8.3028 74.2045 8.04027 75.2457 8.04027C75.5643 8.04027 75.9242 8.07527 76.3224 8.14528C76.7176 8.21529 77.0509 8.30571 77.3164 8.41947V10.4409C77.0332 10.2542 76.6999 10.0909 76.3224 9.95671C75.9419 9.82253 75.5673 9.75544 75.1926 9.75544C74.7826 9.75544 74.467 9.8342 74.237 9.99171C74.0098 10.1492 73.8948 10.368 73.8948 10.6422M78.7381 12.9174C78.7381 11.4239 79.1658 10.2397 80.0183 9.36749C80.8707 8.49532 82.0564 8.05777 83.5726 8.05777C85.0002 8.05777 86.1151 8.47781 86.9174 9.3179C87.7197 10.158 88.1209 11.2927 88.1209 12.7249C88.1209 14.1571 87.6932 15.356 86.8408 16.2223C85.9883 17.0887 84.8261 17.5233 83.3572 17.5233C81.8883 17.5233 80.8176 17.112 79.9858 16.2894C79.154 15.4668 78.7381 14.3438 78.7381 12.9203M80.9769 12.8503C80.9769 13.7954 81.1922 14.5159 81.6258 15.0118C82.0594 15.5106 82.6759 15.7585 83.4841 15.7585C84.2923 15.7585 84.8615 15.5106 85.2715 15.0118C85.6815 14.513 85.8851 13.775 85.8851 12.7978C85.8851 11.8206 85.6727 11.0914 85.2509 10.5955C84.8262 10.0996 84.2333 9.8517 83.4693 9.8517C82.7054 9.8517 82.0712 10.1113 81.6346 10.6305C81.1981 11.1497 80.9828 11.8877 80.9828 12.8503M95.262 10.0121H92.0586V17.3074H89.8818V10.0121H88.3539V8.27363H89.8818V7.01642C89.8818 6.06841 90.1945 5.28958 90.8198 4.68285C91.4451 4.07613 92.2445 3.77277 93.2238 3.77277C93.4833 3.77277 93.7163 3.78735 93.9169 3.8136C94.1175 3.83986 94.2974 3.88069 94.4508 3.9332V5.77088C94.38 5.73004 94.2561 5.68045 94.0762 5.62211C93.8992 5.56378 93.6957 5.53461 93.4627 5.53461C93.0114 5.53461 92.6663 5.67462 92.4244 5.95173C92.1825 6.22884 92.0616 6.64305 92.0616 7.1856V8.27654H95.2649V6.24634L97.424 5.59586V8.27654H99.6009V10.015H97.424V14.2417C97.424 14.7989 97.5273 15.1897 97.7308 15.4202C97.9343 15.6477 98.2558 15.7644 98.6953 15.7644C98.8192 15.7644 98.9696 15.7352 99.1437 15.6769C99.3177 15.6185 99.4711 15.5485 99.6009 15.4668V17.2258C99.4652 17.3016 99.2381 17.3716 98.9195 17.4358C98.6039 17.5 98.2912 17.532 97.9815 17.532C97.076 17.532 96.3946 17.2929 95.9433 16.8174C95.4891 16.339 95.2649 15.6214 95.2649 14.6588V10.018L95.262 10.0121Z" fill="#737373"/>
<path id="Vector_2" d="M10.0936 0.5H0V10.4818H10.0936V0.5Z" fill="#F25022"/>
<path id="Vector_3" d="M21.2352 0.5H11.1416V10.4818H21.2352V0.5Z" fill="#7FBA00"/>
<path id="Vector_4" d="M10.0936 11.5182H0V21.5H10.0936V11.5182Z" fill="#00A4EF"/>
<path id="Vector_5" d="M21.2352 11.5182H11.1416V21.5H21.2352V11.5182Z" fill="#FFB900"/>
<path id="Vector_6" d="M110.82 4.69958L115.619 17.3008H113.186L112.056 14.1709H107.036L105.953 17.3008H103.537L108.336 4.69958H110.826H110.82ZM109.504 7.03607L107.62 12.3449H111.439L109.563 7.03607H109.502H109.504Z" fill="#737373"/>
<path id="Vector_7" d="M122.627 3.97567H124.777V17.2974H122.627V16.1014H122.591C122.267 16.5477 121.854 16.8803 121.361 17.099C120.866 17.3178 120.288 17.4287 119.624 17.4287C118.474 17.4287 117.559 17.0378 116.878 16.259C116.197 15.4801 115.857 14.3979 115.857 13.0153C115.857 11.5218 116.235 10.3259 116.99 9.42454C117.745 8.52611 118.757 8.0769 120.025 8.0769C120.6 8.0769 121.108 8.17024 121.544 8.35693C121.984 8.54361 122.332 8.81781 122.591 9.17368H122.627V3.97275V3.97567ZM120.353 15.7952C121.004 15.7952 121.55 15.5414 121.987 15.0309C122.426 14.5205 122.644 13.8554 122.644 13.0357V12.0702C122.644 11.4431 122.435 10.9093 122.019 10.4659C121.6 10.0225 121.081 9.80374 120.459 9.80374C119.701 9.80374 119.117 10.0779 118.704 10.6292C118.291 11.1805 118.087 11.9535 118.087 12.9482C118.087 13.8437 118.291 14.5438 118.695 15.0455C119.102 15.5472 119.653 15.7981 120.353 15.7981V15.7952Z" fill="#737373"/>
<path id="Vector_8" d="M132.57 8.26465H134.836L131.325 17.2985H128.998L125.647 8.26465H128.001L130.249 15.347H130.284L132.567 8.26465H132.57Z" fill="#737373"/>
<path id="Vector_9" d="M142.563 15.0233V16.7735C142.206 16.9952 141.743 17.176 141.168 17.3131C140.593 17.4502 139.979 17.5202 139.327 17.5202C137.935 17.5202 136.853 17.1119 136.08 16.298C135.307 15.4842 134.921 14.3495 134.921 12.8969C134.921 11.4442 135.333 10.3445 136.159 9.44028C136.985 8.53602 138.032 8.08389 139.301 8.08389C140.569 8.08389 141.545 8.46601 142.247 9.23026C142.949 9.9945 143.3 11.0504 143.3 12.3981V13.4248H137.044C137.139 14.332 137.434 14.9679 137.929 15.3267C138.425 15.6884 139.062 15.8663 139.843 15.8663C140.36 15.8663 140.849 15.7876 141.318 15.633C141.787 15.4784 142.2 15.2742 142.563 15.0233ZM141.186 11.8672C141.186 11.1642 141.02 10.6275 140.693 10.2599C140.366 9.88949 139.9 9.70572 139.304 9.70572C138.788 9.70572 138.327 9.88949 137.917 10.2541C137.507 10.6216 137.236 11.1584 137.1 11.8672H141.189H141.186Z" fill="#737373"/>
<path id="Vector_10" d="M149.232 8.1185C149.403 8.1185 149.557 8.13017 149.695 8.1535C149.831 8.17684 149.946 8.20601 150.041 8.24101V10.3937C149.928 10.312 149.763 10.2333 149.548 10.1604C149.333 10.0874 149.07 10.0495 148.76 10.0495C148.232 10.0495 147.787 10.2683 147.424 10.7088C147.061 11.1492 146.879 11.8259 146.879 12.739V17.3011H144.728V8.26726H146.879V9.69074H146.914C147.109 9.19777 147.407 8.81273 147.802 8.53562C148.2 8.25851 148.675 8.1185 149.232 8.1185Z" fill="#737373"/>
<path id="Vector_11" d="M155.471 15.7556C155.595 15.7556 155.745 15.7264 155.919 15.668C156.093 15.6097 156.247 15.5397 156.376 15.458V17.217C156.241 17.2928 156.014 17.3628 155.698 17.427C155.382 17.4911 155.07 17.5232 154.76 17.5232C153.855 17.5232 153.173 17.284 152.722 16.8057C152.268 16.3273 152.043 15.6097 152.043 14.6471V10.0062H150.542V8.26482H152.043V6.23462L154.203 5.58414V8.26482H156.379V10.0062H154.203V14.2329C154.203 14.79 154.306 15.1809 154.509 15.4114C154.713 15.6389 155.034 15.7556 155.474 15.7556H155.471Z" fill="#737373"/>
<path id="Vector_12" d="M157.593 5.65471C157.593 5.30176 157.722 5.01007 157.979 4.77088C158.236 4.5346 158.542 4.41501 158.899 4.41501C159.277 4.41501 159.593 4.53752 159.84 4.77963C160.088 5.02174 160.212 5.31343 160.212 5.65471C160.212 5.996 160.085 6.29061 159.831 6.52397C159.578 6.75732 159.265 6.87692 158.899 6.87692C158.534 6.87692 158.224 6.75732 157.97 6.52105C157.719 6.28478 157.593 5.996 157.593 5.65471ZM159.964 8.26539V17.2992H157.814V8.26539H159.964Z" fill="#737373"/>
<path id="Vector_13" d="M163.771 10.6387C163.771 10.9421 163.868 11.1813 164.063 11.3563C164.258 11.5284 164.691 11.7472 165.361 12.0097C166.219 12.351 166.824 12.7331 167.169 13.1561C167.517 13.582 167.688 14.0953 167.688 14.6991C167.688 15.548 167.358 16.2305 166.697 16.7468C166.036 17.2631 165.143 17.5198 164.019 17.5198C163.638 17.5198 163.219 17.4732 162.762 17.3827C162.302 17.2923 161.913 17.1756 161.594 17.0356V14.9442C161.987 15.2125 162.405 15.4284 162.857 15.5859C163.308 15.7434 163.715 15.8222 164.084 15.8222C164.57 15.8222 164.927 15.7551 165.16 15.6209C165.39 15.4867 165.505 15.2621 165.505 14.9442C165.505 14.6525 165.385 14.4045 165.146 14.2003C164.907 13.9962 164.449 13.7657 163.78 13.5003C162.986 13.1707 162.423 12.8031 162.093 12.3918C161.759 11.9805 161.594 11.4613 161.594 10.8283C161.594 10.0145 161.922 9.34362 162.576 8.82148C163.231 8.29643 164.081 8.03391 165.122 8.03391C165.441 8.03391 165.8 8.06891 166.199 8.13892C166.597 8.20892 166.927 8.29935 167.196 8.41019V10.4316C166.912 10.245 166.579 10.0845 166.199 9.94743C165.818 9.81325 165.444 9.74616 165.069 9.74616C164.659 9.74616 164.34 9.82492 164.113 9.98243C163.886 10.1399 163.771 10.3587 163.771 10.6329V10.6387Z" fill="#737373"/>
<path id="Vector_14" d="M169.005 5.65471C169.005 5.30176 169.134 5.01007 169.391 4.77088C169.648 4.53169 169.954 4.41501 170.311 4.41501C170.692 4.41501 171.004 4.53752 171.252 4.77963C171.5 5.02174 171.627 5.31343 171.627 5.65471C171.627 5.996 171.5 6.29061 171.243 6.52397C170.987 6.75732 170.677 6.87692 170.311 6.87692C169.945 6.87692 169.636 6.75732 169.382 6.52105C169.128 6.28478 169.005 5.996 169.005 5.65471ZM171.376 8.26539V17.2992H169.226V8.26539H171.376Z" fill="#737373"/>
<path id="Vector_15" d="M181.593 11.7701V17.2978H179.442V12.2543C179.442 11.4288 179.301 10.8134 179.021 10.4079C178.74 10.0025 178.286 9.80118 177.667 9.80118C177.047 9.80118 176.564 10.0258 176.168 10.4779C175.773 10.93 175.578 11.4959 175.578 12.1814V17.2948H173.428V8.26103H175.578V9.45698H175.614C175.95 8.99319 176.366 8.64607 176.859 8.41563C177.351 8.18519 177.917 8.06851 178.563 8.06851C179.534 8.06851 180.283 8.37479 180.808 8.98735C181.333 9.59991 181.596 10.5275 181.596 11.7701H181.593Z" fill="#737373"/>
<path id="Vector_16" d="M189.85 8.26673H192V16.0783C192 17.7177 191.552 18.9778 190.655 19.8529C189.758 20.728 188.472 21.1655 186.803 21.1655C186.239 21.1655 185.685 21.113 185.136 21.0109C184.588 20.9088 184.145 20.7746 183.809 20.6113V18.5373C184.29 18.9078 184.782 19.1557 185.293 19.2841C185.803 19.4124 186.29 19.4766 186.759 19.4766C187.755 19.4766 188.519 19.2141 189.05 18.6861C189.584 18.1581 189.85 17.3939 189.85 16.3934V16.0317H189.814C189.496 16.4605 189.098 16.793 188.629 17.0322C188.157 17.2714 187.564 17.3939 186.847 17.3939C185.708 17.3939 184.797 17.0118 184.11 16.2475C183.422 15.4833 183.08 14.4332 183.08 13.0972C183.08 11.5629 183.455 10.3436 184.204 9.43643C184.953 8.52926 185.965 8.08005 187.239 8.08005C187.82 8.08005 188.325 8.17047 188.75 8.35132C189.177 8.53218 189.531 8.80929 189.817 9.17682H189.853V8.26382L189.85 8.26673ZM185.307 13.0126C185.307 13.8673 185.511 14.5353 185.915 15.0166C186.322 15.4979 186.865 15.7371 187.546 15.7371C188.227 15.7371 188.785 15.492 189.219 15.002C189.649 14.5119 189.867 13.8673 189.867 13.0651V12.0909C189.867 11.452 189.661 10.9124 189.245 10.469C188.829 10.0257 188.316 9.80689 187.699 9.80689C186.936 9.80689 186.346 10.0811 185.93 10.6295C185.514 11.1779 185.307 11.9713 185.307 13.0155V13.0126Z" fill="#737373"/>
</g>
</svg>
